<?xml version="1.0" standalone="no"?>
<!DOCTYPE svg PUBLIC "-//W3C//DTD SVG 20010904//EN"
 "http://www.w3.org/TR/2001/REC-SVG-20010904/DTD/svg10.dtd">
<svg version="1.0" xmlns="http://www.w3.org/2000/svg"
 width="1000.000000pt" height="1000.000000pt" viewBox="0 0 1000.000000 1000.000000"
 preserveAspectRatio="xMidYMid meet">
<metadata>
Created by potrace 1.11, written by Peter Selinger 2001-2013
</metadata>
<g transform="translate(0.000000,1000.000000) scale(0.100000,-0.100000)"
fill="#000000" stroke="none">
<path d="M2996 9506 c-68 -83 -230 -241 -331 -321 -28 -22 -54 -43 -60 -48
-82 -66 -257 -172 -377 -230 -126 -61 -330 -127 -439 -142 -19 -3 -61 -9 -94
-14 -80 -12 -271 -11 -370 1 -131 16 -130 16 -132 -12 -37 -507 -36 -1434 2
-2020 13 -211 16 -247 20 -276 2 -17 7 -70 10 -118 4 -48 8 -95 10 -105 2 -10
6 -54 10 -97 4 -43 8 -90 10 -104 2 -14 7 -50 10 -80 3 -30 8 -66 10 -80 2
-14 7 -50 10 -80 3 -30 8 -66 10 -80 4 -29 15 -104 20 -140 24 -161 38 -243
46 -285 17 -92 50 -270 55 -305 3 -19 8 -38 10 -41 2 -3 6 -21 9 -40 20 -118
104 -466 162 -669 19 -69 36 -132 38 -140 10 -49 162 -501 192 -570 3 -8 7
-20 8 -26 2 -7 14 -38 28 -70 14 -33 42 -99 62 -149 20 -49 50 -118 66 -153
16 -35 29 -65 29 -68 0 -3 40 -84 89 -182 76 -152 114 -223 222 -409 104 -180
307 -468 454 -641 11 -13 28 -33 37 -44 83 -98 285 -306 358 -368 14 -12 41
-36 60 -53 279 -255 698 -517 1090 -682 254 -107 631 -221 694 -211 17 3 72
17 121 32 50 14 104 29 120 34 56 15 219 72 319 112 530 211 975 505 1381 913
371 373 683 822 944 1360 57 116 121 255 121 260 0 3 11 28 24 57 13 29 47
114 76 188 29 74 56 144 61 155 86 211 274 859 339 1168 4 23 11 53 14 67 3
14 10 48 16 75 11 55 15 78 29 145 5 25 12 63 15 85 4 22 13 72 21 110 8 39
17 93 20 120 4 28 8 57 10 65 6 23 22 128 60 405 13 93 44 376 50 455 3 41 8
86 10 100 3 24 11 127 20 260 3 36 7 97 9 135 3 39 8 129 11 200 3 72 8 191
11 265 9 172 9 886 1 1050 -4 69 -9 187 -13 263 -9 196 -11 227 -15 232 -3 2
-49 -3 -104 -11 -143 -20 -389 -13 -525 15 -281 59 -524 170 -763 349 -98 73
-437 401 -437 422 0 7 -637 10 -1969 10 l-1969 0 -36 -44z"/>
</g>
</svg>
